<svg xmlns="http://www.w3.org/2000/svg" viewBox="0 0 104.37 83.58"><g><path fill="#7eb6d9" d="M94.6,54.99c-3.08,12.01-7.43,28.75-13.93,28.59-8.31-.19-10.23-13.43-12.84-25.79C39.83,64.37,8.43,49.09.86,22.35-1.92,12.53,2.18,5.76,11.22,2.74c27.12-9.08,56.16,5.14,66.89,32,8.96-7.34,21.71-12.45,25.19-7.98,4.28,5.49-5.36,15.18-8.7,28.23Z"/><path fill="#aad4e4" d="M89.75,61.58c-1.64,6.69-3.69,14.88-8.55,18.95-3.37,1.34-6.46-4.86-7.11-7.41l-4.56-18.09c-16.48,3.62-32.43.82-46.95-7.93,15.31-7.88,22.84-24.18,18.35-42.26,16.7,4.01,29.54,15.92,35.53,33.5,13.93-10.17,27.96-13.05,25.37-7.62-4.82,10.1-9.21,19.12-12.08,30.85Z"/><g><path fill="#aad4e4" d="M20.17,44.83C5.93,35.85-1.65,13.63,6.22,8.62,15.44,2.74,26.39,2.04,37.44,3.71c5.44,15.81-.54,33.52-17.27,41.12Z"/><circle fill="#fff" cx="25.09" cy="16.86" r="5.67"/></g></g></svg>
