<!-- Generator: visioncortex VTracer 0.6.12 -->
<svg xmlns="http://www.w3.org/2000/svg" viewBox="0 0 640 575" width="640" height="575" xmlns:c2pa="http://c2pa.org/manifest"><metadata><c2pa:manifest>AAAWgmp1bWIAAAAeanVtZGMycGEAEQAQgAAAqgA4m3EDYzJwYQAAABZcanVtYgAAAEdqdW1kYzJtYQARABCAAACqADibcQN1cm46YzJwYTpjZDE4ZmI5ZC1lNWIzLTRjNDctOTI4NC04MWNhYmVlODkxMWQAAAADl2p1bWIAAAApanVtZGMyYXMAEQAQgAAAqgA4m3EDYzJwYS5hc3NlcnRpb25zAAAAALxqdW1iAAAARGp1bWRjYm9yABEAEIAAAKoAOJtxE2MycGEuaW5ncmVkaWVudC52MwAAAAAYYzJzaLatXR9UCFBqJSPV52LxjmgAAABwY2JvcqNpZGM6Zm9ybWF0bWltYWdlL3N2Zyt4bWxqaW5zdGFuY2VJRHgseG1wOmlpZDo1NTQyZmRjOS04YzU1LTRmYTAtYTdkZi03NzFlNzgwNmJjYjFscmVsYXRpb25zaGlwaHBhcmVudE9mAAAB4mp1bWIAAABBanVtZGNib3IAEQAQgAAAqgA4m3ETYzJwYS5hY3Rpb25zLnYyAAAAABhjMnNo0FKe4FuxdsdVTIqncjv/xAAAAZljYm9yomdhY3Rpb25zgqJmYWN0aW9ua2MycGEub3BlbmVkanBhcmFtZXRlcnOha2luZ3JlZGllbnRzgaJjdXJseC1zZWxmI2p1bWJmPWMycGEuYXNzZXJ0aW9ucy9jMnBhLmluZ3JlZGllbnQudjNkaGFzaFgg6cjYs/MIfE042pBe0SGGZTA45cjWwNF2C2jTeLFNsEOkZmFjdGlvbngdY29tLmFudGhyb3BpYy5jbGF1ZGUucHJvdmlkZWRqcGFyYW1ldGVyc6F4H2NvbS5hbnRocm9waWMub3JpZ2luLWNvbmZpZGVuY2VndW5rbm93bmtkZXNjcmlwdGlvbnhmQ2xhdWRlIHByb3ZpZGVkIHRoaXMgZmlsZSBhdCB0aGUgcmVxdWVzdCBvZiBhIHVzZXIgYW5kIG1heSBoYXZlIGNyZWF0ZWQgb3IgbW9kaWZpZWQgdGhlIGZpbGUgY29udGVudHMubXNvZnR3YXJlQWdlbnShZG5hbWVmQ2xhdWRlcmFsbEFjdGlvbnNJbmNsdWRlZPUAAADIanVtYgAAAEBqdW1kY2JvcgARABCAAACqADibcRNjMnBhLmhhc2guZGF0YQAAAAAYYzJzaBNnjFPAuByveuXS4XtChycAAACAY2JvcqVjYWxnZnNoYTI1NmNwYWRNAAAAAAAAAAAAAAAAAGRoYXNoWCAelViGORMAiQOE8s5W6YRrko/DhisJSBZsLCRCbFqr5mRuYW1lbmp1bWJmIG1hbmlmZXN0amV4Y2x1c2lvbnOBomVzdGFydBjGZmxlbmd0aBkeBAAAAj5qdW1iAAAAJ2p1bWRjMmNsABEAEIAAAKoAOJtxA2MycGEuY2xhaW0udjIAAAACD2Nib3KlY2FsZ2ZzaGEyNTZpc2lnbmF0dXJleE1zZWxmI2p1bWJmPS9jMnBhL3VybjpjMnBhOmNkMThmYjlkLWU1YjMtNGM0Ny05Mjg0LTgxY2FiZWU4OTExZC9jMnBhLnNpZ25hdHVyZWppbnN0YW5jZUlEeCx4bXA6aWlkOjM3YjM0YTI3LWQwNDYtNGE1ZS04NjA3LWE5NjdlYzkwOGZiMnJjcmVhdGVkX2Fzc2VydGlvbnODomN1cmx4LXNlbGYjanVtYmY9YzJwYS5hc3NlcnRpb25zL2MycGEuaW5ncmVkaWVudC52M2RoYXNoWCDpyNiz8wh8TTjakF7RIYZlMDjlyNbA0XYLaNN4sU2wQ6JjdXJseCpzZWxmI2p1bWJmPWMycGEuYXNzZXJ0aW9ucy9jMnBhLmFjdGlvbnMudjJkaGFzaFggEoDeGXBw6prNtKNa/DQorjl8x5GKpP6rLkMNJUKDwC2iY3VybHgpc2VsZiNqdW1iZj1jMnBhLmFzc2VydGlvbnMvYzJwYS5oYXNoLmRhdGFkaGFzaFggSzU5poUk3H4uxacpZjyBhld8A8epeoWuV/QSSinkB7d0Y2xhaW1fZ2VuZXJhdG9yX2luZm+jZG5hbWVvQW50aHJvcGljIEZpbGVzZ3ZlcnNpb25lMS4wLjBrc3BlY1ZlcnNpb25lMi40LjAAABA4anVtYgAAAChqdW1kYzJjcwARABCAAACqADibcQNjMnBhLnNpZ25hdHVyZQAAABAIY2JvctKEWQISogEmGCFZAgowggIGMIIBjaADAgECAhRA5aAK7sI50L64g/oGQgU9Z1UTADAKBggqhkjOPQQDAzBJMRcwFQYDVQQKEw5BbnRocm9waWMsIFBCQzEuMCwGA1UEAxMlQW50aHJvcGljIENvbnRlbnQgQ3JlZGVudGlhbHMgUm9vdCBDQTAeFw0yNjA4MDcxODQzNTZaFw0yODA4MDYxOTQzNTZaMEQxFzAVBgNVBAoTDkFudGhyb3BpYywgUEJDMSkwJwYDVQQDEyBBbnRocm9waWMgQ2xhdWRlIENvbnRlbnQgU2lnbmluZzBZMBMGByqGSM49AgEGCCqGSM49AwEHA0IABJh6CmvLUBgFFNU0vUKlOVtE6djd17L5SuwX0LemFisBM3dkd/3cyjxFA3Qo5S46fX0/ihY0VZ7mfb9KF703t5OjWDBWMA4GA1UdDwEB/wQEAwIHgDAVBgNVHSUEDjAMBgorBgEEAYPoXgIBMAwGA1UdEwEB/wQCMAAwHwYDVR0jBBgwFoAUzlHiBIFOZFsj+OPEz5o+nMHXXMIwCgYIKoZIzj0EAwMDZwAwZAIwMXMdFJ4BetLLVY7ORuE9noqbbAZOZn/aArXyTwFAZfKrPzxF2vPoJNf1+UCdg1XGAjBwX1zd9WGqYkqmL5SFqw1QySjr1zJfpJM9+1rdDwSPLMOPOjKuiXjoU/pUUeG9RwmhY3BhZFkNngAAAAAAAAAAAAAAAAAAAAAAAAAAAAAAAAAAAAAAAAAAAAAAAAAAAAAAAAAAAAAAAAAAAAAAAAAAAAAAAAAAAAAAAAAAAAAAAAAAAAAAAAAAAAAAAAAAAAAAAAAAAAAAAAAAAAAAAAAAAAAAAAAAAAAAAAAAAAAAAAAAAAAAAAAAAAAAAAAAAAAAAAAAAAAAAAAAAAAAAAAAAAAAAAAAAAAAAAAAAAAAAAAAAAAAAAAAAAAAAAAAAAAAAAAAAAAAAAAAAAAAAAAAAAAAAAAAAAAAAAAAAAAAAAAAAAAAAAAAAAAAAAAAAAAAAAAAAAAAAAAAAAAAAAAAAAAAAAAAAAAAAAAAAAAAAAAAAAAAAAAAAAAAAAAAAAAAAAAAAAAAAAAAAAAAAAAAAAAAAAAAAAAAAAAAAAAAAAAAAAAAAAAAAAAAAAAAAAAAAAAAAAAAAAAAAAAAAAAAAAAAAAAAAAAAAAAAAAAAAAAAAAAAAAAAAAAAAAAAAAAAAAAAAAAAAAAAAAAAAAAAAAAAAAAAAAAAAAAAAAAAAAAAAAAAAAAAAAAAAAAAAAAAAAAAAAAAAAAAAAAAAAAAAAAAAAAAAAAAAAAAAAAAAAAAAAAAAAAAAAAAAAAAAAAAAAAAAAAAAAAAAAAAAAAAAAAAAAAAAAAAAAAAAAAAAAAAAAAAAAAAAAAAAAAAAAAAAAAAAAAAAAAAAAAAAAAAAAAAAAAAAAAAAAAAAAAAAAAAAAAAAAAAAAAAAAAAAAAAAAAAAAAAAAAAAAAAAAAAAAAAAAAAAAAAAAAAAAAAAAAAAAAAAAAAAAAAAAAAAAAAAAAAAAAAAAAAAAAAAAAAAAAAAAAAAAAAAAAAAAAAAAAAAAAAAAAAAAAAAAAAAAAAAAAAAAAAAAAAAAAAAAAAAAAAAAAAAAAAAAAAAAAAAAAAAAAAAAAAAAAAAAAAAAAAAAAAAAAAAAAAAAAAAAAAAAAAAAAAAAAAAAAAAAAAAAAAAAAAAAAAAAAAAAAAAAAAAAAAAAAAAAAAAAAAAAAAAAAAAAAAAAAAAAAAAAAAAAAAAAAAAAAAAAAAAAAAAAAAAAAAAAAAAAAAAAAAAAAAAAAAAAAAAAAAAAAAAAAAAAAAAAAAAAAAAAAAAAAAAAAAAAAAAAAAAAAAAAAAAAAAAAAAAAAAAAAAAAAAAAAAAAAAAAAAAAAAAAAAAAAAAAAAAAAAAAAAAAAAAAAAAAAAAAAAAAAAAAAAAAAAAAAAAAAAAAAAAAAAAAAAAAAAAAAAAAAAAAAAAAAAAAAAAAAAAAAAAAAAAAAAAAAAAAAAAAAAAAAAAAAAAAAAAAAAAAAAAAAAAAAAAAAAAAAAAAAAAAAAAAAAAAAAAAAAAAAAAAAAAAAAAAAAAAAAAAAAAAAAAAAAAAAAAAAAAAAAAAAAAAAAAAAAAAAAAAAAAAAAAAAAAAAAAAAAAAAAAAAAAAAAAAAAAAAAAAAAAAAAAAAAAAAAAAAAAAAAAAAAAAAAAAAAAAAAAAAAAAAAAAAAAAAAAAAAAAAAAAAAAAAAAAAAAAAAAAAAAAAAAAAAAAAAAAAAAAAAAAAAAAAAAAAAAAAAAAAAAAAAAAAAAAAAAAAAAAAAAAAAAAAAAAAAAAAAAAAAAAAAAAAAAAAAAAAAAAAAAAAAAAAAAAAAAAAAAAAAAAAAAAAAAAAAAAAAAAAAAAAAAAAAAAAAAAAAAAAAAAAAAAAAAAAAAAAAAAAAAAAAAAAAAAAAAAAAAAAAAAAAAAAAAAAAAAAAAAAAAAAAAAAAAAAAAAAAAAAAAAAAAAAAAAAAAAAAAAAAAAAAAAAAAAAAAAAAAAAAAAAAAAAAAAAAAAAAAAAAAAAAAAAAAAAAAAAAAAAAAAAAAAAAAAAAAAAAAAAAAAAAAAAAAAAAAAAAAAAAAAAAAAAAAAAAAAAAAAAAAAAAAAAAAAAAAAAAAAAAAAAAAAAAAAAAAAAAAAAAAAAAAAAAAAAAAAAAAAAAAAAAAAAAAAAAAAAAAAAAAAAAAAAAAAAAAAAAAAAAAAAAAAAAAAAAAAAAAAAAAAAAAAAAAAAAAAAAAAAAAAAAAAAAAAAAAAAAAAAAAAAAAAAAAAAAAAAAAAAAAAAAAAAAAAAAAAAAAAAAAAAAAAAAAAAAAAAAAAAAAAAAAAAAAAAAAAAAAAAAAAAAAAAAAAAAAAAAAAAAAAAAAAAAAAAAAAAAAAAAAAAAAAAAAAAAAAAAAAAAAAAAAAAAAAAAAAAAAAAAAAAAAAAAAAAAAAAAAAAAAAAAAAAAAAAAAAAAAAAAAAAAAAAAAAAAAAAAAAAAAAAAAAAAAAAAAAAAAAAAAAAAAAAAAAAAAAAAAAAAAAAAAAAAAAAAAAAAAAAAAAAAAAAAAAAAAAAAAAAAAAAAAAAAAAAAAAAAAAAAAAAAAAAAAAAAAAAAAAAAAAAAAAAAAAAAAAAAAAAAAAAAAAAAAAAAAAAAAAAAAAAAAAAAAAAAAAAAAAAAAAAAAAAAAAAAAAAAAAAAAAAAAAAAAAAAAAAAAAAAAAAAAAAAAAAAAAAAAAAAAAAAAAAAAAAAAAAAAAAAAAAAAAAAAAAAAAAAAAAAAAAAAAAAAAAAAAAAAAAAAAAAAAAAAAAAAAAAAAAAAAAAAAAAAAAAAAAAAAAAAAAAAAAAAAAAAAAAAAAAAAAAAAAAAAAAAAAAAAAAAAAAAAAAAAAAAAAAAAAAAAAAAAAAAAAAAAAAAAAAAAAAAAAAAAAAAAAAAAAAAAAAAAAAAAAAAAAAAAAAAAAAAAAAAAAAAAAAAAAAAAAAAAAAAAAAAAAAAAAAAAAAAAAAAAAAAAAAAAAAAAAAAAAAAAAAAAAAAAAAAAAAAAAAAAAAAAAAAAAAAAAAAAAAAAAAAAAAAAAAAAAAAAAAAAAAAAAAAAAAAAAAAAAAAAAAAAAAAAAAAAAAAAAAAAAAAAAAAAAAAAAAAAAAAAAAAAAAAAAAAAAAAAAAAAAAAAAAAAAAAAAAAAAAAAAAAAAAAAAAAAAAAAAAAAAAAAAAAAAAAAAAAAAAAAAAAAAAAAAAAAAAAAAAAAAAAAAAAAAAAAAAAAAAAAAAAAAAAAAAAAAAAAAAAAAAAAAAAAAAAAAAAAAAAAAAAAAAAAAAAAAAAAAAAAAAAAAAAAAAAAAAAAAAAAAAAAAAAAAAAAAAAAAAAAAAAAAAAAAAAAAAAAAAAAAAAAAAAAAAAAAAAAAAAAAAAAAAAAAAAAAAAAAAAAAAAAAAAAAAAAAAAAAAAAAAAAAAAAAAAAAAAAAAAAAAAAAAAAAAAAAAAAAAAAAAAAAAAAAAAAAAAAAAAAAAAAAAAAAAAAAAAAAAAAAAAAAAAAAAAAAAAAAAAAAAAAAAAAAAAAAAAAAAAAAAAAAAAAAAAAAAAAAAAAAAAAAAAAAAAAAAAAAAAAAAAAAAAAAAAAAAAAAAAAAAAAAAAAAAAAAAAAAAAAAAAAAAAAAAAAAAAAAAAAAAAAAAAAAAAAAAAAAAAAAAAAAAAAAAAAAAAAAAAAAAAAAAAAAAAAAAAAAAAAAAAAAAAAAAAAAAAAAAAAAAAAAAAAAAAAAAAAAAAAAAAAAAAAAAAAAAAAAAAAAAAAAAAAAAAAAAAAAAAAAAAAAAAAAAAAAAAAAAAAAAAAAAAAAAAAAAAAAAAAAAAAAAAAAAAAAAAAAAAAAAAAAAAAAAAAAAAAAAAAAAAAAAAAAAAAAAAAAAAAAAAAAAAAAAAAAAAAAAAAAAAAAAAAAAAAAAAAAAAAAAAAAAAAAAAAAAAAAAAAAAAAAAAAAAAAAAAAAAAAAAAAAAAAAAAAAAAAAAAAAAAAAAAAAAAAAAAAAAAAAAAAAAAAAAAAAAAAAAAAAAAAAAAAAAAAAAAAAAAAAAAAAAAAAAAAAAAAAAAAAAAAAAAAAAAAAAAAAAAAAAAAAAAAAAAAAAAAAAAAAAAAAAAAAAAAAAAAAAAAAAAAAAAAAAAAAAAAAAAAAAAAAAAAAAAAAAAAAAAAAAAAAAAAAAAAAAAAAAAAAAAAAAAAAAAAAAAAAAAAAAAAAAAAAAAAAAAAAAAAAAAAAAAAAAAAAAAAAAAAAAAAAAAAAAAAAAAAAAAAAAAAAAAAAAAAAAAAAAAAAAAAAAAAAAAAAAAAAAAAAAAAAAAAAAAAAAAAAAAAAAAAAAAAAAAAAAAAAAAAAAAAAAAAAAAAAAAAAAAAAAAAAAAAAAAAAAAAAAAAAAAAAAAAAAAAAAAAAAAAAAAAAAAAAAAAAAAAAAAAAAAAAAAAAAAAAAAAAAAAAAAAAAAAAAAAAAAAAAAAAAAAAAAAAAAAAAAAAAAAAAAAAAAAAAAAAAAAAAAAAAAAAAAAAAAAAAAAAAAAAAAAAAAAAAAAAAAAAAAAAAAAAAAAAAAAAAAAAAAAAAAAAAAAAAAAAAAAAAAAAAAAAAAAAAAAAAAAAAAAAAAAAAAAAAAAAAAAAAAAAAAAAAAAAAAAAAAAAAAAAAAAAAAAAAAAAAAAAAAAAAAAAAAAAAAAAAAAAAAAAAAAAAAAAAAAAAAAAAAAAAAAAAAAAAAAAAAAAAAAAAAAAAAAAAAAAAAAAAAAAAAAAAAAAAAAAAAAAAAAAAAAAAAAAAAAAAAAAAAAAAAAAAAAAAAAAAAAAAAAAAAPZYQBex03QYTKdq9jkSpMaDYuc+e90Iqp9GiW4+xPtz+Eq9cPJZBZ8b6vZBEvZvK8mL907Xxies05s6UHsEyP+6izw=</c2pa:manifest></metadata>
<path d="M0 0 C3.79 0 7.58 -0 11.37 -0.02 C31.02 -0.11 50.56 0.06 70.16 1.69 C70.9 1.75 71.64 1.81 72.41 1.88 C87.71 3.18 102.82 5.46 117.9 8.32 C119.1 8.54 120.3 8.77 121.54 9 C143.81 13.28 166.17 18.93 186.9 28.32 C187.8 28.72 188.69 29.12 189.61 29.53 C209.76 38.67 228.79 49.2 245.9 63.32 C246.16 63.53 246.16 63.53 247.49 64.6 C259.88 74.63 271.23 85.62 280.9 98.32 C281.7 99.36 282.5 100.4 283.32 101.48 C302.1 126.57 313.67 156.3 320.28 186.75 C320.51 187.85 320.75 188.95 321 190.08 C324.33 206.31 325.23 222.07 325.16 238.6 C325.15 241.81 325.16 245.02 325.17 248.23 C325.19 264.36 323.9 279.74 320.65 295.57 C320.44 296.62 320.22 297.68 320 298.76 C312.96 332.38 300.69 364.18 277.9 390.32 C277.26 391.09 276.61 391.87 275.95 392.67 C266.47 403.86 254.04 412.23 241.9 420.32 C242.49 425.87 244.47 430.37 246.78 435.38 C247.18 436.25 247.58 437.13 247.99 438.03 C257.02 457.51 267.78 475.52 279.62 493.43 C288.5 506.92 295 519.82 292.44 536.3 C290.03 547.54 284.29 555.67 274.9 562.32 C253.42 573.23 226.95 566.8 205.21 559.75 C178.24 550.6 153.13 537.76 129.9 521.32 C129.31 520.9 128.72 520.48 128.12 520.06 C121.22 515.12 114.92 509.64 108.71 503.88 C108.02 503.24 107.33 502.61 106.61 501.95 C103.57 499.1 100.8 496.39 98.54 492.87 C96.16 489.37 94.6 487.42 90.9 485.32 C83.82 484.29 76.66 485.18 69.59 485.95 C57.34 487.16 45.08 487.48 32.78 487.48 C31.29 487.49 29.79 487.49 28.3 487.5 C23.54 487.51 18.78 487.51 14.03 487.5 C13.21 487.5 12.4 487.5 11.56 487.5 C-72.32 487.47 -170.8 486.92 -249.9 416.52 C-279.95 384.99 -296.65 342.66 -304.1 300.32 C-304.27 299.36 -304.45 298.41 -304.63 297.43 C-316.05 233.11 -305.97 159.5 -268.31 105.18 C-262.64 97.24 -256.51 89.88 -249.67 82.92 C-248.01 81.22 -246.37 79.51 -244.73 77.79 C-237.06 69.86 -229 62.82 -220.1 56.32 C-219.56 55.92 -219.02 55.53 -218.46 55.12 C-172.81 21.99 -118.47 7.93 -63.1 2.32 C-62.24 2.23 -61.39 2.13 -60.51 2.04 C-40.37 -0.02 -20.23 -0.03 0 0 Z " fill="#FCC631" transform="translate(311.099365234375,3.684326171875)"/>
<path d="M0 0 C3.79 0 7.58 -0 11.37 -0.02 C31.02 -0.11 50.56 0.06 70.16 1.69 C70.9 1.75 71.64 1.81 72.41 1.88 C87.71 3.18 102.82 5.46 117.9 8.32 C119.1 8.54 120.3 8.77 121.54 9 C143.81 13.28 166.17 18.93 186.9 28.32 C187.8 28.72 188.69 29.12 189.61 29.53 C209.76 38.67 228.79 49.2 245.9 63.32 C246.16 63.53 246.16 63.53 247.49 64.6 C259.88 74.63 271.23 85.62 280.9 98.32 C281.7 99.36 282.5 100.4 283.32 101.48 C302.1 126.57 313.67 156.3 320.28 186.75 C320.51 187.85 320.75 188.95 321 190.08 C324.33 206.31 325.23 222.07 325.16 238.6 C325.15 241.81 325.16 245.02 325.17 248.23 C325.19 264.36 323.9 279.74 320.65 295.57 C320.44 296.62 320.22 297.68 320 298.76 C312.96 332.38 300.69 364.18 277.9 390.32 C277.26 391.09 276.61 391.87 275.95 392.67 C266.47 403.86 254.04 412.23 241.9 420.32 C242.49 425.87 244.47 430.37 246.78 435.38 C247.18 436.25 247.58 437.13 247.99 438.03 C257.02 457.51 267.78 475.52 279.62 493.43 C288.5 506.92 295 519.82 292.44 536.3 C290.03 547.54 284.29 555.67 274.9 562.32 C253.42 573.23 226.95 566.8 205.21 559.75 C178.24 550.6 153.13 537.76 129.9 521.32 C129.31 520.9 128.72 520.48 128.12 520.06 C121.22 515.12 114.92 509.64 108.71 503.88 C108.02 503.24 107.33 502.61 106.61 501.95 C103.57 499.1 100.8 496.39 98.54 492.87 C96.16 489.37 94.6 487.42 90.9 485.32 C83.82 484.29 76.66 485.18 69.59 485.95 C57.34 487.16 45.08 487.48 32.78 487.48 C31.29 487.49 29.79 487.49 28.3 487.5 C23.54 487.51 18.78 487.51 14.03 487.5 C13.21 487.5 12.4 487.5 11.56 487.5 C-72.32 487.47 -170.8 486.92 -249.9 416.52 C-279.95 384.99 -296.65 342.66 -304.1 300.32 C-304.27 299.36 -304.45 298.41 -304.63 297.43 C-316.05 233.11 -305.97 159.5 -268.31 105.18 C-262.64 97.24 -256.51 89.88 -249.67 82.92 C-248.01 81.22 -246.37 79.51 -244.73 77.79 C-237.06 69.86 -229 62.82 -220.1 56.32 C-219.56 55.92 -219.02 55.53 -218.46 55.12 C-172.81 21.99 -118.47 7.93 -63.1 2.32 C-62.24 2.23 -61.39 2.13 -60.51 2.04 C-40.37 -0.02 -20.23 -0.03 0 0 Z M-66.72 22.07 C-67.11 22.11 -67.11 22.11 -69.03 22.32 C-83.53 23.97 -97.82 26.28 -112.1 29.32 C-112.84 29.47 -113.59 29.62 -114.36 29.78 C-153.89 38.12 -193.56 56.41 -223.1 84.32 C-224.39 85.4 -225.68 86.49 -226.97 87.57 C-248.78 106.7 -263.96 132.4 -274.1 159.32 C-274.34 159.95 -274.59 160.59 -274.84 161.24 C-284.95 188.11 -287.63 216.69 -287.44 245.17 C-287.41 248.84 -287.42 252.51 -287.42 256.18 C-287.41 268.38 -287.14 280.27 -285.1 292.32 C-284.95 293.22 -284.81 294.13 -284.66 295.07 C-284.26 297.39 -283.82 299.69 -283.35 302 C-283.18 302.83 -283.01 303.66 -282.84 304.51 C-275.58 338.84 -262.19 371.58 -239.1 398.32 C-238.68 398.81 -238.68 398.81 -236.54 401.28 C-205.86 436.17 -160.76 453.67 -115.63 459.93 C-113.21 460.3 -110.85 460.77 -108.47 461.29 C-47.88 473.71 22.55 472.71 83.7 465.56 C84.2 465.5 84.2 465.5 86.71 465.22 C88.46 465 90.2 464.76 91.93 464.49 C94.15 464.19 94.15 464.19 97.9 464.32 C100.47 466.29 100.47 466.29 102.9 469.32 C104.05 470.56 105.22 471.79 106.39 473.02 C107.66 474.39 108.94 475.76 110.21 477.13 C112.2 479.25 114.2 481.37 116.19 483.5 C117.52 484.91 118.84 486.33 120.17 487.75 C144.66 513.31 181.28 532.64 214.9 542.32 C216.16 542.7 217.42 543.09 218.72 543.48 C232.1 547.49 248.35 551.78 261.9 546.32 C267.28 543.3 270.8 539.89 272.65 533.88 C274.06 519.38 267.55 509.91 259.9 498.32 C243.13 472.77 224.37 443.23 216.9 413.32 C217.9 410.32 217.9 410.32 221.15 408.48 C222.59 407.77 224.02 407.07 225.46 406.38 C234.74 401.69 242.85 395.87 250.9 389.32 C251.51 388.82 252.13 388.32 252.76 387.8 C256.37 384.79 259.46 381.7 262.4 378 C263.16 377.04 263.92 376.09 264.71 375.1 C265.43 374.18 266.16 373.26 266.9 372.32 C267.51 371.58 268.12 370.85 268.75 370.1 C284.99 350.27 294.4 324.14 299.65 299.38 C299.84 298.5 300.02 297.62 300.22 296.72 C300.84 293.59 301.38 290.46 301.9 287.32 C301.96 286.94 301.96 286.94 302.28 285.02 C304.5 271.45 305.38 258.16 305.29 244.41 C305.28 241.38 305.29 238.35 305.31 235.33 C305.33 217.46 303.82 199.57 299.21 182.25 C299.08 181.76 299.08 181.76 298.44 179.27 C290.03 148.04 275.63 119.52 252.9 96.32 C251.95 95.31 250.99 94.31 250.04 93.3 C214.98 56.79 165.71 37.7 117.08 27.96 C114.85 27.51 112.63 27.04 110.4 26.57 C101.69 24.75 93.03 23.43 84.19 22.44 C82.06 22.19 79.93 21.94 77.81 21.68 C55.15 19.02 32.32 19.15 9.54 19.19 C5.87 19.19 2.2 19.19 -1.47 19.18 C-23.32 19.15 -44.99 19.58 -66.72 22.07 Z " fill="#482309" transform="translate(311.099365234375,3.684326171875)"/>
<path d="M0 0 C0.33 0.17 0.33 0.17 2 1 C1.61 1.42 1.22 1.83 0.82 2.26 C-18.6 23.65 -31.9 50.12 -39 78 C-39.26 78.92 -39.53 79.84 -39.8 80.79 C-52.37 126.39 -48.12 178.35 -28 221 C-27.69 221.67 -27.38 222.33 -27.06 223.02 C-19.74 238.36 -9.16 251.41 2.62 263.57 C3.89 264.88 5.13 266.23 6.38 267.57 C41.52 304.56 93.99 320 143 327 C143.8 327.12 144.6 327.24 145.43 327.36 C152.6 328.42 159.79 329.25 167 330 C167.66 330.07 168.31 330.14 168.99 330.21 C193.06 332.71 217.07 333.28 241.25 333.25 C241.94 333.25 242.63 333.25 243.34 333.25 C256.91 333.24 270.48 333.17 284.05 332.55 C284.46 332.53 284.46 332.53 286.57 332.43 C290.79 332.21 294.84 331.76 299 331 C301.02 330.86 303.04 330.78 305.06 330.75 C306.06 330.72 307.07 330.7 308.1 330.67 C312.57 331.18 315.02 332.94 318.04 336.21 C318.7 337.07 319.37 337.93 320.06 338.81 C320.84 339.79 321.62 340.77 322.42 341.78 C322.84 342.3 323.25 342.82 323.68 343.36 C336.46 359.23 350.33 374.94 366 388 C366.51 388.43 367.01 388.85 367.54 389.29 C392.41 410.1 422.82 429.3 455.93 431 C459.71 431.31 461.74 431.78 464.69 434.22 C468.76 439.93 470.13 444.72 470.06 451.69 C470.05 452.87 470.04 454.05 470.04 455.26 C470.03 455.71 470.03 455.71 470 458 C448.95 466.13 420.57 454.78 401.27 446.41 C373.27 433.95 348.05 418.36 326 397 C325.18 396.22 324.36 395.44 323.52 394.64 C318.57 389.83 314.33 384.74 310.24 379.19 C307.42 376.43 305.88 376.39 302 376 C299.82 376.1 297.64 376.28 295.48 376.52 C294.21 376.66 292.93 376.79 291.62 376.93 C290.29 377.08 288.96 377.23 287.62 377.38 C265.12 379.88 242.57 380.21 219.94 380.19 C218.71 380.19 217.48 380.19 216.21 380.18 C134.12 380.05 37.97 378.95 -24.41 317.61 C-56.69 284.87 -71.73 240.67 -78 196 C-78.18 194.82 -78.35 193.65 -78.53 192.44 C-79.21 186.91 -79.18 181.37 -79.2 175.81 C-79.21 174.64 -79.21 173.46 -79.22 172.25 C-79.23 169.76 -79.24 167.28 -79.24 164.79 C-79.25 161.07 -79.28 157.35 -79.31 153.62 C-79.4 133.7 -78.08 114.1 -73.06 94.75 C-72.82 93.77 -72.58 92.78 -72.34 91.77 C-67.39 71.89 -67.39 71.89 -63 68 C-61.78 66.23 -60.6 64.43 -59.44 62.62 C-45.64 41.72 -28.81 22.39 -9 7 C-8.56 6.65 -8.56 6.65 -6.32 4.89 C-4.22 3.25 -2.11 1.62 0 0 Z " fill="#D6A313" transform="translate(103,92)"/>
<path d="M0 0 C3.66 0.01 7.33 0 10.99 -0 C34.14 -0.03 57.28 0.06 80.29 2.82 C81.01 2.9 81.73 2.99 82.48 3.07 C98.21 4.92 113.69 7.77 129.16 11.13 C130 11.31 130.84 11.49 131.71 11.68 C174.17 20.96 215.21 41.63 246.68 71.71 C247.67 72.66 248.67 73.6 249.68 74.54 C284.43 107.09 302.38 157.11 304.49 203.96 C304.67 209.81 304.69 215.66 304.66 221.51 C304.66 222.54 304.66 223.57 304.66 224.63 C304.6 243.19 303.02 260.97 299.16 279.13 C298.96 280.09 298.76 281.04 298.55 282.02 C297.34 287.48 295.86 292.81 294.16 298.13 C293.92 298.92 293.67 299.71 293.42 300.53 C286.39 322.99 276.09 343.04 259.88 360.24 C258.16 362.13 258.16 362.13 257.16 364.13 C256.5 364.13 255.84 364.13 255.16 364.13 C256.58 359.71 258.25 355.47 260.04 351.19 C264.61 340.03 268.07 328.34 268.35 316.22 C268.57 308.64 269.74 302.77 272.77 295.74 C274.5 291.26 275.67 286.74 276.79 282.07 C276.98 281.28 277.18 280.5 277.38 279.69 C281.49 262.07 282.71 244.75 282.6 226.69 C282.6 225.6 282.59 224.5 282.59 223.37 C282.39 179.05 273.28 132.16 244.16 97.13 C243.71 96.58 243.26 96.02 242.8 95.45 C227.08 76.14 208.25 61.7 186.2 50.19 C184.38 49.24 182.57 48.26 180.77 47.27 C143.61 27.62 99.6 19.73 58.16 16.13 C57.15 16.04 56.13 15.95 55.08 15.86 C45.55 15.1 36.08 14.97 26.53 14.96 C24.85 14.96 23.17 14.96 21.49 14.95 C17.98 14.95 14.46 14.94 10.95 14.95 C7.41 14.95 3.87 14.94 0.33 14.92 C-27.6 14.82 -55.33 15.21 -82.96 19.82 C-83.75 19.95 -84.55 20.08 -85.36 20.21 C-150.58 30.86 -212.31 60.57 -253.84 113.13 C-254.25 113.64 -254.25 113.64 -256.31 116.23 C-262.35 123.88 -267.7 131.85 -272.84 140.13 C-273.84 138.13 -273.84 138.13 -273.28 136.25 C-272.21 133.68 -271.13 131.12 -270.02 128.57 C-269.61 127.62 -269.2 126.68 -268.78 125.7 C-252.03 87.97 -222.33 58.32 -186.62 38.14 C-184.89 37.16 -183.17 36.16 -181.45 35.15 C-145.81 14.85 -104.4 6.73 -64.09 2.44 C-63.53 2.38 -63.53 2.38 -60.72 2.08 C-40.52 0.06 -20.28 -0.03 0 0 Z " fill="#FAD97D" transform="translate(311.83642578125,22.86962890625)"/>
<path d="M0 0 C1.03 0.22 2.07 0.44 3.13 0.67 C48.33 10.61 96.03 30.64 122 71 C126.7 78.39 130.52 85.24 132.46 93.86 C133 96 133 96 133.79 98.2 C136.59 106.11 137.96 115.5 135.09 123.56 C132 128.81 127.74 132.69 122.25 135.31 C112.77 137.32 105.47 135.67 97 131 C89.02 125.69 82.05 119.32 75.09 112.75 C69.94 107.89 64.57 103.38 59 99 C58 98.2 56.99 97.4 55.96 96.58 C32.27 77.89 5.61 63.19 -23.32 54.4 C-24.03 54.18 -24.74 53.97 -25.48 53.74 C-28.99 52.68 -32.51 51.65 -36.05 50.66 C-46.07 47.79 -54.67 43.8 -59.94 34.36 C-63.46 26.53 -66.69 17.66 -65 9 C-62.57 2.79 -58.97 -0.29 -53 -3 C-36.81 -7.96 -16.11 -3.49 0 0 Z " fill="#FCE299" transform="translate(426,57)"/>
<path d="M0 0 C0.33 0 0.66 0 1 0 C1.16 0.87 1.32 1.73 1.49 2.62 C2.1 5.91 2.72 9.19 3.34 12.48 C3.61 13.88 3.87 15.29 4.13 16.7 C12.06 59.39 30.48 99.02 60.59 130.52 C61.52 131.5 62.46 132.49 63.38 133.48 C75.18 146.1 88.96 156.51 104 165 C104.31 165.18 104.31 165.18 105.89 166.08 C132.02 180.86 160.58 188.73 190 194 C191.19 194.21 192.38 194.43 193.61 194.65 C228.56 200.74 263.88 202.27 299.31 202.25 C300.41 202.25 301.51 202.25 302.65 202.25 C314.73 202.22 326.79 202 338.87 201.55 C339.91 201.51 340.95 201.48 342.02 201.44 C348.98 201.16 355.89 200.61 362.81 199.94 C365.43 199.69 368.06 199.45 370.68 199.21 C372.78 199.02 374.88 198.82 376.97 198.62 C382.26 198.33 385.93 198.3 390.12 201.75 C391.45 203.13 392.74 204.55 394 206 C395.35 207.46 396.71 208.92 398.06 210.38 C399.5 211.93 400.92 213.5 402.33 215.07 C408.18 221.49 414.35 227.42 421 233 C421.53 233.44 422.05 233.89 422.59 234.35 C454.31 261.07 500.24 293.9 543.19 296.69 C543.65 296.72 543.65 296.72 545.98 296.89 C546.65 296.92 547.31 296.96 548 297 C548 297.33 548 297.66 548 298 C512.95 306.31 470.85 283.18 441.85 265.47 C428.43 257 416.38 247.02 405 236 C404.18 235.22 403.36 234.44 402.52 233.64 C397.57 228.83 393.33 223.74 389.24 218.19 C386.42 215.43 384.88 215.39 381 215 C378.82 215.1 376.64 215.28 374.48 215.52 C373.21 215.66 371.93 215.79 370.62 215.93 C369.29 216.08 367.96 216.23 366.62 216.38 C344.12 218.88 321.57 219.21 298.94 219.19 C297.71 219.19 296.48 219.19 295.21 219.18 C213.12 219.05 116.97 217.95 54.59 156.61 C22.22 123.77 7.49 79.72 1 35 C0.8 33.74 0.6 32.48 0.4 31.18 C-0.33 25.16 -0.1 19.06 -0.06 13 C-0.06 11.75 -0.05 10.5 -0.05 9.21 C-0.04 6.14 -0.02 3.07 0 0 Z " fill="#A87D04" transform="translate(24,253)"/>
<path d="M0 0 C3.82 1.55 5.97 3.89 8.69 6.94 C9.12 7.43 9.56 7.91 10.01 8.42 C13.68 12.56 17.16 16.85 20.64 21.16 C24.09 25.3 27.75 29.24 31.42 33.18 C34.05 36.05 36.53 38.99 39 42 C38.38 39.44 37.75 36.87 37.12 34.31 C36.95 33.59 36.78 32.87 36.6 32.13 C35.65 28.27 34.5 24.69 33 21 C32.88 18.19 32.88 18.19 33 16 C37.81 15.81 41.63 15.88 46 18 C47.27 20.39 48.05 22.33 48.81 24.88 C49.31 26.33 49.8 27.79 50.31 29.24 C50.58 30.02 50.84 30.79 51.12 31.58 C55.95 44.79 62.5 57.55 69 70 C69.33 70.65 69.67 71.3 70.01 71.97 C76.35 84.18 83.83 95.58 91.49 106.99 C91.89 107.6 92.3 108.2 92.72 108.83 C93.83 110.5 94.95 112.17 96.07 113.83 C101.09 122.1 103.18 129.91 101.31 139.56 C99.73 143.71 98.14 145.86 95 149 C92.84 149.66 92.84 149.66 91 150 C91 149.63 91 149.63 90.99 147.76 C90.41 132.55 81.73 124.06 71.65 113.71 C1.07 40.72 1.07 40.72 -2.25 4.25 C-2 2 -2 2 0 0 Z " fill="#FAD97D" transform="translate(482,399)"/>
<path d="M0 0 C0.33 0 0.66 0 1 0 C1.71 18.52 -2.35 35.71 -10.66 52.31 C-12 55 -12 55 -12.4 57 C-13.13 59.42 -13.96 60.17 -15.92 61.73 C-16.53 62.22 -17.14 62.71 -17.76 63.21 C-18.42 63.72 -19.07 64.23 -19.75 64.75 C-20.42 65.28 -21.1 65.81 -21.79 66.35 C-30.61 73.16 -40.12 78.66 -49.95 83.87 C-52 85 -52 85 -53 86 C-55.02 85.91 -57.05 85.75 -59.06 85.56 C-60.17 85.46 -61.27 85.36 -62.41 85.25 C-62.84 85.21 -62.84 85.21 -65 85 C-64.82 85.6 -64.65 86.21 -64.47 86.83 C-63.66 89.6 -62.86 92.36 -62.06 95.12 C-61.92 95.6 -61.92 95.6 -61.22 98.01 C-59.88 102.65 -58.64 107.19 -58 112 C-63.01 108.27 -66.62 103.9 -70.51 99.03 C-73.07 95.91 -75.75 92.95 -78.5 90 C-82.92 85.25 -87.07 80.35 -91.12 75.28 C-93 73 -93 73 -94.81 71.44 C-95.01 71.2 -95.01 71.2 -96 70 C-95.69 67.81 -95.69 67.81 -95 66 C-94.35 65.84 -93.69 65.68 -93.02 65.52 C-85.68 63.65 -78.88 61.13 -72 58 C-71.16 57.62 -70.33 57.25 -69.46 56.86 C-42.47 44.61 -16.85 28.21 -1.28 2.11 C-0.86 1.42 -0.43 0.72 0 0 Z " fill="#DAA616" transform="translate(580,330)"/>
<path d="M0 0 C6.97 3.36 10.51 10.92 13.25 17.78 C14.95 23.29 15.26 28.56 15.32 34.28 C15.33 35.09 15.34 35.9 15.35 36.73 C15.25 43.19 13.69 47.33 9.38 52.28 C5.72 55.11 1.98 55.05 -2.51 54.82 C-8.36 53.89 -12.07 49.93 -15.67 45.52 C-22.83 35.08 -25.44 22.92 -24.12 10.41 C-22.5 6.91 -22.5 6.91 -20.12 4.41 C-19.3 3.46 -18.47 2.51 -17.62 1.53 C-12.74 -2.31 -5.69 -1.59 0 0 Z " fill="#FCE299" transform="translate(565.12109375,206.59375)"/>
<path d="M0 0 C23.69 0 49.96 21.98 65.8 37.8 C88.46 62.14 88.46 62.14 88.19 75.25 C88 79 88 79 87 80 C83.82 80.44 82.38 80.25 79.69 78.46 C76.35 75.41 73.88 72.04 71.25 68.38 C67.07 62.66 62.78 57.28 57.94 52.11 C56.55 50.6 55.23 49.03 53.96 47.43 C44.46 35.66 29.74 27.09 16.7 19.88 C2.38 11.9 2.38 11.9 -2 6 C-1.7 1.7 -1.7 1.7 0 0 Z " fill="#F2FAFA" transform="translate(468,72)"/>
<path d="M0 0 C0.16 0.5 0.16 0.5 1 3 C-1.64 7.12 -4.86 9.46 -9 12 C-5.38 16.88 -5.38 16.88 -2 18 C-7.98 24.18 -14.47 29.84 -21 35.44 C-29.54 42.91 -37 51.08 -44 60 C-44.81 61.02 -45.63 62.04 -46.47 63.09 C-52.51 70.74 -57.86 78.72 -63 87 C-64 85 -64 85 -63.45 83.11 C-62.37 80.55 -61.3 77.99 -60.19 75.44 C-59.78 74.49 -59.37 73.55 -58.94 72.57 C-46.29 44.07 -25.57 18.02 0 0 Z " fill="#F7C53A" transform="translate(102,76)"/>
<path d="M0 0 C0.33 0.99 0.66 1.98 1 3 C-1.64 7.12 -4.86 9.46 -9 12 C-5.38 16.88 -5.38 16.88 -2 18 C-3.64 19.7 -5.31 21.35 -7 23 C-7.64 23.64 -8.28 24.27 -8.94 24.93 C-9.62 25.57 -10.3 26.21 -11 26.88 C-11.32 27.18 -11.32 27.18 -12.94 28.74 C-15 30 -15 30 -17.75 29.7 C-18.49 29.47 -19.23 29.24 -20 29 C-20.8 24.78 -20.95 21.2 -20 17 C-16.54 12.61 -12.44 9.34 -8 6 C-7.15 5.33 -6.3 4.67 -5.42 3.98 C-3.64 2.61 -1.83 1.3 0 0 Z " fill="#FACE52" transform="translate(102,76)"/>
<path d="M0 0 C9.3 -0.14 18.58 0.08 27.88 0.44 C28.4 0.46 28.4 0.46 31.08 0.56 C37.1 0.8 43.02 1.26 49 2 C49 2.33 49 2.66 49 3 C33.16 3 17.32 3 1 3 C0.67 2.01 0.34 1.02 0 0 Z " fill="#DBC078" transform="translate(335,23)"/>
<path d="M0 0 C2.41 2.41 3.54 4.94 5 8 C4.29 8.77 3.58 9.54 2.85 10.34 C1.92 11.35 0.99 12.36 0.06 13.38 C-0.41 13.88 -0.87 14.39 -1.36 14.91 C-4.89 18.77 -4.89 18.77 -6 21 C-6.66 21 -7.32 21 -8 21 C-6.49 16.29 -4.73 11.71 -2.88 7.12 C-2.6 6.44 -2.32 5.75 -2.04 5.04 C-1.36 3.36 -0.68 1.68 0 0 Z " fill="#F6D372" transform="translate(575,366)"/>
<path d="M0 0 C0 0.33 0 0.66 0 1 C-4.3 2.05 -8.48 2.15 -12.88 2.12 C-13.56 2.13 -14.24 2.13 -14.94 2.14 C-19.39 2.13 -23.61 1.72 -28 1 C-20.37 -3.65 -8.51 -0.96 0 0 Z " fill="#99730B" transform="translate(572,550)"/>
<path d="M0 0 C0.33 0.99 0.66 1.98 1 3 C-2.01 7.7 -6.05 10.53 -11 13 C-11.33 12.01 -11.66 11.02 -12 10 C-10.56 8.71 -9.13 7.41 -7.69 6.12 C-6.89 5.41 -6.09 4.69 -5.26 3.95 C-3 2 -3 2 0 0 Z " fill="#F1CD64" transform="translate(102,76)"/>
<path d="M0 0 C0.33 0 0.66 0 1 0 C1.31 3.14 1.28 4.59 -0.53 7.24 C-1.18 7.92 -1.83 8.61 -2.5 9.31 C-3.15 10.01 -3.8 10.71 -4.47 11.43 C-4.97 11.95 -5.48 12.46 -6 13 C-6.99 12.67 -7.98 12.34 -9 12 C-7.69 10.19 -6.38 8.37 -5.06 6.56 C-4.7 6.06 -4.7 6.06 -2.85 3.5 C-1 1 -1 1 0 0 Z " fill="#EFBF34" transform="translate(67,110)"/>
<path d="M0 0 C3.13 1.38 5.2 2.98 7.56 5.44 C8.14 6.03 8.72 6.63 9.32 7.25 C9.59 7.54 9.59 7.54 11 9 C12 10 13 11 14 12 C13.34 12.66 12.68 13.32 12 14 C9.99 12.05 8 10.09 6 8.12 C5.43 7.57 4.86 7.01 4.27 6.44 C2.81 5 1.4 3.5 0 2 C0 1.34 0 0.68 0 0 Z " fill="#593417" transform="translate(556,91)"/>
<path d="M0 0 C1.28 4.27 0.55 6.78 -1 11 C-2.54 13.75 -4.22 16.39 -6 19 C-7 17 -7 17 -6.47 15.21 C-6.17 14.51 -5.87 13.81 -5.57 13.09 C-5.25 12.33 -4.93 11.56 -4.6 10.78 C-4.26 9.99 -3.92 9.19 -3.56 8.38 C-3.22 7.57 -2.89 6.77 -2.54 5.95 C-1.7 3.96 -0.85 1.98 0 0 Z " fill="#E2B431" transform="translate(45,144)"/>
<path d="M0 0 C-2.71 0.2 -5.42 0.38 -8.12 0.56 C-8.89 0.62 -9.65 0.67 -10.43 0.73 C-14.8 1.01 -18.68 0.93 -23 0 C-23 -0.33 -23 -0.66 -23 -1 C-5.11 -2.84 -5.11 -2.84 0 0 Z " fill="#9C7404" transform="translate(405,468)"/>
</svg>
